<?xml version="1.0" standalone="no"?>
<!DOCTYPE svg PUBLIC "-//W3C//DTD SVG 20010904//EN"
 "http://www.w3.org/TR/2001/REC-SVG-20010904/DTD/svg10.dtd">
<svg version="1.0" xmlns="http://www.w3.org/2000/svg"
 width="1350.000000pt" height="1350.000000pt" viewBox="0 0 1350.000000 1350.000000"
 preserveAspectRatio="xMidYMid meet">
<metadata>
Created by potrace 1.11, written by Peter Selinger 2001-2013
</metadata>
<g transform="translate(0.000000,1350.000000) scale(0.100000,-0.100000)"
fill="#000000" stroke="none">
<path d="M7655 10530 c-2 -3 -4 -1708 -4 -3788 l0 -3782 289 0 289 0 0 1268
c0 697 1 1270 1 1273 0 7 72 80 799 817 273 277 545 553 604 615 62 63 111
107 115 101 4 -6 39 -57 77 -113 39 -56 77 -113 85 -126 13 -21 91 -135 255
-375 50 -73 225 -331 395 -581 47 -69 164 -241 260 -382 96 -142 236 -349 312
-460 75 -111 140 -206 145 -212 4 -5 46 -66 92 -135 47 -69 130 -192 187 -275
101 -149 258 -381 400 -590 41 -60 147 -216 235 -345 88 -129 197 -290 242
-357 l82 -122 354 -1 c350 0 353 0 340 20 -8 11 -58 84 -111 162 -53 79 -129
190 -169 248 -39 58 -104 152 -144 210 -39 58 -114 168 -167 245 -52 77 -303
446 -558 820 -255 374 -515 754 -576 845 -62 91 -127 185 -144 210 -17 25
-146 214 -287 420 -334 491 -467 686 -579 850 -261 382 -326 481 -320 488 4 4
139 141 299 306 454 464 498 509 850 870 183 186 370 378 417 426 47 48 182
186 300 307 869 888 1120 1145 1120 1147 0 1 -171 1 -381 1 l-381 0 -180 -185
c-99 -102 -330 -338 -513 -525 -183 -187 -391 -399 -461 -472 -71 -72 -280
-285 -464 -473 -383 -392 -715 -732 -875 -895 -151 -155 -767 -784 -895 -915
-58 -58 -251 -256 -429 -438 -179 -183 -326 -330 -328 -328 -2 2 -5 955 -6
2117 l-2 2114 -283 0 c-156 0 -285 -2 -287 -5z"/>
<path d="M4806 8783 c-1 -1 -472 -5 -1046 -8 -574 -3 -1045 -7 -1048 -9 -5 -6
-4 -277 2 -283 6 -6 80 -6 1446 2 1911 10 1750 8 1754 25 3 8 4 74 4 146 l-1
131 -554 -1 c-305 0 -556 -2 -557 -3z"/>
<path d="M65 6487 c-3 -7 -3 -73 -2 -147 l2 -134 2926 -2 2926 -3 1 145 c0
127 -2 144 -17 145 -9 0 -1325 2 -2924 4 -2200 2 -2909 0 -2912 -8z"/>
<path d="M3943 4657 c-4 -7 -7 -200 -4 -268 1 -15 83 -16 979 -15 l977 1 0
145 0 145 -973 0 c-536 0 -976 -4 -979 -8z"/>
</g>
</svg>
